<svg xmlns="http://www.w3.org/2000/svg" viewBox="476.0 476.1 1095.6 1095.6" role="img" aria-label="MCP Tool Shop">
  <title>MCP Tool Shop</title>
  <defs>
    <linearGradient id="a" x1="0" y1="0" x2="1" y2="1">
      <stop offset="0" stop-color="#3b82f6"/>
      <stop offset="1" stop-color="#8b5cf6"/>
    </linearGradient>
  </defs>
  <path fill="url(#a)" fill-rule="evenodd" d="M 1024.06 534.766 C 1028.26 534.964 1056.21 552.593 1061.75 555.864 L 1143.19 604.234 C 1243.34 663.534 1345.61 726.508 1447.1 783.166 L 1446.94 1264.95 C 1440.91 1268.82 1433.88 1272.58 1427.61 1276.17 C 1388.68 1298.5 1350.23 1322.54 1310.84 1344 L 1310.66 885.443 C 1293.08 897.338 1276.69 910.891 1261.71 925.916 C 1207.07 980.622 1173.56 1059.74 1169.52 1136.44 C 1167.86 1167.98 1168.92 1211.15 1168.9 1243.34 L 1168.99 1429.36 C 1121.81 1455.84 1075.49 1484.65 1028.38 1511.31 C 1025.47 1512.96 1025.31 1512.48 1022.39 1511.93 C 1001.71 1498.88 977.262 1486.43 955.984 1474.1 C 930.704 1459.45 905.288 1444.91 879.993 1430.28 L 879.765 1238.05 C 879.661 1194.69 881.541 1145.49 875.049 1103.27 C 865.239 1039.47 836.216 973.641 790.909 927.282 C 774.383 910.372 757.197 897.267 738.195 883.391 L 738.021 1347.11 C 720.249 1336.01 701.882 1326.34 683.648 1316.01 L 601.426 1268.64 C 601.674 1247.21 601.628 1225.54 601.48 1204.1 C 600.513 1064.32 603.533 924.014 601.366 784.288 C 613.005 778.713 630.08 767.9 641.534 761.088 L 711.795 719.318 L 910.821 600.921 C 946.83 579.544 987.211 554.457 1024.06 534.766 z M 738.198 708.607 C 768.244 713.953 810.225 731.638 837.342 745.206 C 930.601 791.869 1005.17 886.427 1024.07 989.351 C 1037.53 936.996 1053.15 898.9 1084.21 854.095 C 1134.58 781.425 1224.6 728.03 1310.72 711.607 C 1312.03 766.366 1310.65 826.053 1310.82 881.438 C 1285.29 887.73 1269.53 895.859 1247.02 909.136 C 1229.83 919.798 1213.53 931.834 1198.29 945.125 C 1115.09 1017.44 1064.1 1138.21 1056.63 1246.85 L 992.296 1246.67 C 986.471 1178.17 966.67 1111.59 934.114 1051.03 C 901.014 989.502 848.659 933.507 787.066 899.097 C 772.652 891.044 754.144 885.002 738.275 880.212 L 738.198 708.607 z"/>
</svg>
